<svg xmlns="http://www.w3.org/2000/svg" fill="#1faded" viewBox="-0.0032066372223198414 -0.027165967971086502 93.1594467163086 93.5488052368164">
	<path d="M34.37 81.08c-.2-2.11.8-3.9 2.35-5.55C40 72 43.53 68.76 46.88 65.32c2.95-3 6-5.92 8.94-9 1.32-1.4 1.3-1.47-.1-2.87C54 51.69 52.2 50 50.46 48.18c-1.43-1.46-1.41-1.57 0-3 1-1 2.07-2.1 3.12-3.13s1.51-1.14 2.68 0L69.8 55.69c2.56 2.57 5.11 5.15 7.72 7.68.92.9 1 1.6 0 2.52-4.5 4.46-9 9-13.46 13.43-3.82 3.83-7.7 7.61-11.47 11.51-3.24 3.35-8.6 3.82-12 0-1.25-1.38-2.63-2.64-3.94-4-1.78-1.72-2.29-2.99-2.28-5.75zm32.71-16.47a.81.81 0 0 0-.28-.71c-.94-.9-1.88-1.9-2.8-2.81-.67-.63-1.21-.39-1.82.23q-8.47 8.52-17 17c-3.09 3.09-3.07 3.37.32 6.16l.11.09a1.35 1.35 0 0 0 2.17-.08C54 78.21 60.21 72 66.45 65.74c.3-.3.66-.57.63-1.13zM46 0a7.88 7.88 0 0 1 5.93 2c1.79 1.72 3.56 3.46 5.24 5.29 2.53 2.76 2.22 7.35-.77 10.4C51 23.19 45.55 28.56 40.15 34c-1.11 1.12-2.23 2.23-3.34 3.36-.71.72-.94 1.32 0 2.19 2.07 1.91 4 4 6 5.94 1 .92.93 1.61 0 2.48s-2.1 2.03-3.16 3.09c-1.32 1.29-1.49 1.28-2.76 0L24.42 38.6c-2.87-2.87-5.72-5.77-8.62-8.6-1-.95-.94-1.69 0-2.64q12.57-12.45 25.08-25A7.69 7.69 0 0 1 46 0zm4.29 12.23a1.33 1.33 0 0 0-.51-1c-.67-.68-1.37-1.34-2-2a1.33 1.33 0 0 0-2.28 0c-1.45 1.52-2.95 3-4.45 4.46q-6.91 6.86-13.85 13.69c-.89.87-1.26 1.62-.06 2.56A14.51 14.51 0 0 1 29 31.83c.7.79 1.22.73 2 0 5.87-5.87 11.8-11.69 17.67-17.55a6.28 6.28 0 0 0 1.57-2.05z" />
	<path d="M93.13 46.67a6.46 6.46 0 0 1-2 5.28c-2 2-3.74 4.37-6.28 5.8a7.43 7.43 0 0 1-9.2-1.26q-9.75-9.7-19.46-19.44c-1.32-1.32-1.32-1.33-2.62 0-2 2-4 3.95-5.94 6-.76.79-1.33.87-2.11 0q-1.78-2-3.74-3.75c-.72-.68-.57-1.17 0-1.78q11-10.92 21.89-21.87c.66-.66 1.15-.57 1.8.08L90.7 40.88a7.36 7.36 0 0 1 2.43 5.79zm-8.58-.18c0-.52-.43-.85-.8-1.22l-5.67-5.68-12.15-12.15c-1.32-1.32-1.33-1.31-2.68 0a15.75 15.75 0 0 1-1.43 1.4c-1.09.87-1 1.57 0 2.53C67.43 36.93 73 42.51 78.55 48.08c2.85 2.85 2.21 2.87 5.06 0 .39-.42.99-.78.94-1.59zM0 46.6a7.36 7.36 0 0 1 2.31-5.52c1.43-1.41 2.83-2.85 4.27-4.25a7.6 7.6 0 0 1 10.82 0c6.52 6.45 13 13 19.48 19.45 1.4 1.4 1.4 1.41 2.75.05 2-2 3.95-3.89 5.85-5.9.84-.89 1.44-.83 2.22 0 1.13 1.24 2.3 2.42 3.53 3.57.7.66.77 1.18.06 1.89Q40.39 66.77 29.53 77.7c-.93.94-1.47.37-2.12-.28Q17.24 67.22 7 57.05l-4.53-4.56A7.73 7.73 0 0 1 0 46.6zM28.61 67a1.29 1.29 0 0 0 .83-.52c.75-.74 1.45-1.53 2.23-2.23s.78-1.25-.05-2.06C26 56.73 20.57 51.13 15 45.64c-3.54-3.48-2.31-3.51-6 0a1.24 1.24 0 0 0 0 2.07l3 3L27.37 66.1a2.73 2.73 0 0 0 1.24.9z" />
</svg>